<?xml version="1.0" encoding="UTF-8" standalone="no"?>
<!DOCTYPE svg PUBLIC "-//W3C//DTD SVG 1.1//EN" "http://www.w3.org/Graphics/SVG/1.1/DTD/svg11.dtd">
<svg width="449px" height="188px" version="1.1" xmlns="http://www.w3.org/2000/svg" xmlns:xlink="http://www.w3.org/1999/xlink" xml:space="preserve" xmlns:serif="http://www.serif.com/" style="fill-rule:evenodd;clip-rule:evenodd;stroke-linejoin:round;stroke-miterlimit:2;">
    <path d="M196.2,156.9l49.6,-0l-0,28.2l-71.4,-0l0.9,-1.2l42.2,-0.5l-40.6,-1.6l0.7,-0.9l39.9,-1l-38.1,-1.3l0.8,-1l37.3,-1.3l-35.4,-1.2l0.9,-1.1l34.5,-1.2l-32.7,-1.2l1,-1.2l31.7,-1.2l-29.9,-1.1l1,-1.3l28.9,-1.2l-27.2,-1.1l1.1,-1.4l26.1,-1l-24.5,-1.1l1.2,-1.5l23.3,-1l-22.1,-0.6l0.8,-1Zm-1.6,-7.4l50.1,-60.9l1.2,0l-76.5,96.5l-25.8,0l-0,-20.6l59.8,-75.9l1.1,-0l-32.4,42.8l35.2,-42.8l1.7,-0l-34,45l37,-45l1.5,-0l-35.7,47.2l38.8,-47.2l1.4,-0l-37.4,49.5l40.7,-49.5l1.2,-0l-39,51.7l42.5,-51.7l1.1,-0l-40.8,53.9l44.4,-53.9l0.9,-0l-42.5,56.2l46.2,-56.2l0.8,-0l-44.1,58.4l48,-58.4l0.7,-0l-46.1,60.9Zm-63.3,35.5c-5,1.6 -9.1,2 -16.4,2c-13.9,-0 -24.6,-6.5 -29,-20.7l-0.3,-0c-4.2,7.9 -14.9,20.7 -42.1,20.7c-28.3,0.1 -43.5,-13.8 -43.5,-35c0,-31.4 32.2,-40.6 67.2,-40.6l16.5,-0l0,-5.8c0,-13.3 -8.1,-22.2 -24.3,-22.2c-13.6,-0 -22.2,6.8 -23.5,17.8l-32.5,-0c2.1,-29 24.6,-45 57.8,-45c37.4,-0 57.3,19.6 57.3,52.1l-0,41.3c-0,5.2 2.4,7.8 6,7.8c2.2,-0 4.5,-0.4 6.5,-1.3l0.3,28.9Zm-47.6,-45.8l-0,-8.1l-18.5,-0c-19.1,-0 -30.3,5.5 -30.3,16.7c-0,8.4 6.3,13.1 18.6,13.1c18.7,-0 30.2,-11.5 30.2,-21.7Zm365.3,45.4c-5.4,1.8 -11.1,2.6 -16.8,2.5c-20.9,-0 -31.7,-12.6 -31.7,-35.3l-0,-151.8l35.9,-0l-0,149.7c-0,5 2.6,7.8 6.3,7.8c2.2,-0 4.3,-0.4 6.3,-1.3l-0,28.4Zm-57.7,-28.4l-0,28.4c-5.4,1.8 -11.1,2.7 -16.8,2.5c-16,-0 -26.1,-7.3 -29.9,-21c-8.8,13.1 -23.6,21 -39.4,21c-29.3,-0 -44.2,-20.7 -44.2,-47.1l-0,-82.3l36.1,-0l-0,74c-0,14.9 7.6,24.3 22,24.3c13.3,-0 23.5,-10.7 23.5,-26.7l-0,-71.7l36.1,-0l-0,92.1c-0,4.9 2.6,7.8 6.3,7.8c2.2,-0 4.3,-0.4 6.3,-1.3Zm-247.7,-99.3l102.4,-0l-0,28.5l-102.4,-0l-0,-0.5l62.3,-1.3l-62.3,-1.2l-0,-1.1l62.3,-1.2l-62.3,-1.3l-0,-1l62.3,-1.3l-62.3,-1.3l-0,-1l62.3,-1.3l-62.3,-1.2l-0,-1l62.3,-1.3l-62.3,-1.3l-0,-1l62.3,-1.3l-62.3,-1.3l-0,-1l62.3,-1.3l-62.3,-1.2l-0,-1l62.3,-1.3l-62.3,-1.3l-0,-0.5Z" style="fill:rgb(20,34,65);"/>
</svg>
